<svg width="327" height="342" viewBox="0 0 327 342" fill="none" xmlns="http://www.w3.org/2000/svg">
<g filter="url(#filter0_d_84_79)">
<path d="M204.236 142.116L553.736 92.6163V200.616H32.7363L204.236 142.116Z" fill="#BBD5FF"/>
<circle cx="73.001" cy="195.881" r="52" transform="rotate(-1.411 73.001 195.881)" fill="#BBD5FF"/>
<circle cx="150.001" cy="227.881" r="52" transform="rotate(-1.411 150.001 227.881)" fill="#BBD5FF"/>
<circle cx="224.001" cy="233.879" r="52" transform="rotate(-1.411 224.001 233.879)" fill="#BBD5FF"/>
<circle cx="322.276" cy="239.155" r="77.6515" transform="rotate(-1.411 322.276 239.155)" fill="#BBD5FF"/>
<circle cx="388.276" cy="214.155" r="77.6515" transform="rotate(-1.411 388.276 214.155)" fill="#BBD5FF"/>
<circle cx="164.487" cy="142.365" r="72" transform="rotate(-1.411 164.487 142.365)" fill="#BBD5FF"/>
<circle cx="272.123" cy="131" r="57" transform="rotate(-1.411 272.123 131)" fill="#BBD5FF"/>
<circle cx="352.123" cy="88.0008" r="57" transform="rotate(-1.411 352.123 88.0008)" fill="#BBD5FF"/>
</g>
<defs>
<filter id="filter0_d_84_79" x="0" y="0" width="602.123" height="341.807" filterUnits="userSpaceOnUse" color-interpolation-filters="sRGB">
<feFlood flood-opacity="0" result="BackgroundImageFix"/>
<feColorMatrix in="SourceAlpha" type="matrix" values="0 0 0 0 0 0 0 0 0 0 0 0 0 0 0 0 0 0 127 0" result="hardAlpha"/>
<feOffset dy="4"/>
<feGaussianBlur stdDeviation="10.5"/>
<feComposite in2="hardAlpha" operator="out"/>
<feColorMatrix type="matrix" values="0 0 0 0 0 0 0 0 0 0 0 0 0 0 0 0 0 0 0.25 0"/>
<feBlend mode="normal" in2="BackgroundImageFix" result="effect1_dropShadow_84_79"/>
<feBlend mode="normal" in="SourceGraphic" in2="effect1_dropShadow_84_79" result="shape"/>
</filter>
</defs>
</svg>
