<svg width="688" height="308" viewBox="0 0 688 308" fill="none" xmlns="http://www.w3.org/2000/svg">
<g filter="url(#filter0_d_84_64)">
<path d="M270.236 143.116L619.736 93.6161V201.616H98.7363L270.236 143.116Z" fill="white"/>
<circle cx="139.001" cy="196.88" r="52" transform="rotate(-1.411 139.001 196.88)" fill="white"/>
<circle cx="56.001" cy="227.88" r="52" transform="rotate(-1.411 56.001 227.88)" fill="white"/>
<circle cx="230.487" cy="143.365" r="72" transform="rotate(-1.411 230.487 143.365)" fill="white"/>
<circle cx="232.487" cy="221.366" r="72" transform="rotate(-1.411 232.487 221.366)" fill="white"/>
<circle cx="366.487" cy="233.365" r="72" transform="rotate(-1.411 366.487 233.365)" fill="white"/>
<circle cx="338.123" cy="132" r="57" transform="rotate(-1.411 338.123 132)" fill="white"/>
<circle cx="418.123" cy="89.0008" r="57" transform="rotate(-1.411 418.123 89.0008)" fill="white"/>
<circle cx="512.123" cy="75.0004" r="57" transform="rotate(-1.411 512.123 75.0004)" fill="white"/>
<circle cx="590.123" cy="80.9999" r="57" transform="rotate(-1.411 590.123 80.9999)" fill="white"/>
<circle cx="661.123" cy="149.999" r="57" transform="rotate(-1.411 661.123 149.999)" fill="white"/>
<circle cx="593.123" cy="206.001" r="57" transform="rotate(-1.411 593.123 206.001)" fill="white"/>
<circle cx="459.123" cy="231" r="57" transform="rotate(-1.411 459.123 231)" fill="white"/>
<circle cx="527.123" cy="222.001" r="57" transform="rotate(-1.411 527.123 222.001)" fill="white"/>
</g>
<defs>
<filter id="filter0_d_84_64" x="0" y="0" width="722.123" height="305.365" filterUnits="userSpaceOnUse" color-interpolation-filters="sRGB">
<feFlood flood-opacity="0" result="BackgroundImageFix"/>
<feColorMatrix in="SourceAlpha" type="matrix" values="0 0 0 0 0 0 0 0 0 0 0 0 0 0 0 0 0 0 127 0" result="hardAlpha"/>
<feOffset dy="-14"/>
<feGaussianBlur stdDeviation="2"/>
<feComposite in2="hardAlpha" operator="out"/>
<feColorMatrix type="matrix" values="0 0 0 0 0 0 0 0 0 0 0 0 0 0 0 0 0 0 0.25 0"/>
<feBlend mode="normal" in2="BackgroundImageFix" result="effect1_dropShadow_84_64"/>
<feBlend mode="normal" in="SourceGraphic" in2="effect1_dropShadow_84_64" result="shape"/>
</filter>
</defs>
</svg>
