<svg width="764" height="318" viewBox="0 0 764 318" fill="none" xmlns="http://www.w3.org/2000/svg">
<g filter="url(#filter0_d_84_117)">
<path d="M156.5 153.117L506 103.617V211.617H-15L156.5 153.117Z" fill="white"/>
<circle cx="60.2647" cy="197.876" r="52" transform="rotate(-1.411 60.2647 197.876)" fill="white"/>
<circle cx="116.751" cy="153.365" r="72" transform="rotate(-1.411 116.751 153.365)" fill="white"/>
<circle cx="2.7511" cy="223.361" r="72" transform="rotate(-1.411 2.7511 223.361)" fill="white"/>
<circle cx="120.751" cy="228.363" r="72" transform="rotate(-1.411 120.751 228.363)" fill="white"/>
<circle cx="332.751" cy="228.362" r="72" transform="rotate(-1.411 332.751 228.362)" fill="white"/>
<circle cx="449.751" cy="240.361" r="72" transform="rotate(-1.411 449.751 240.361)" fill="white"/>
<circle cx="232.751" cy="236.363" r="72" transform="rotate(-1.411 232.751 236.363)" fill="white"/>
<circle cx="224.386" cy="141.999" r="57" transform="rotate(-1.411 224.386 141.999)" fill="white"/>
<circle cx="304.386" cy="99.0011" r="57" transform="rotate(-1.411 304.386 99.0011)" fill="white"/>
<circle cx="398.386" cy="85.0004" r="57" transform="rotate(-1.411 398.386 85.0004)" fill="white"/>
<circle cx="480.386" cy="96.0002" r="57" transform="rotate(-1.411 480.386 96.0002)" fill="white"/>
<circle cx="561.386" cy="114.001" r="57" transform="rotate(-1.411 561.386 114.001)" fill="white"/>
<circle cx="531.386" cy="181.001" r="57" transform="rotate(-1.411 531.386 181.001)" fill="white"/>
<circle cx="623.386" cy="184.999" r="57" transform="rotate(-1.411 623.386 184.999)" fill="white"/>
<circle cx="550.386" cy="258.998" r="57" transform="rotate(-1.411 550.386 258.998)" fill="white"/>
<circle cx="653.386" cy="255.997" r="57" transform="rotate(-1.411 653.386 255.997)" fill="white"/>
<circle cx="705.386" cy="218.999" r="57" transform="rotate(-1.411 705.386 218.999)" fill="white"/>
</g>
<defs>
<filter id="filter0_d_84_117" x="-117.25" y="0" width="879.637" height="315.999" filterUnits="userSpaceOnUse" color-interpolation-filters="sRGB">
<feFlood flood-opacity="0" result="BackgroundImageFix"/>
<feColorMatrix in="SourceAlpha" type="matrix" values="0 0 0 0 0 0 0 0 0 0 0 0 0 0 0 0 0 0 127 0" result="hardAlpha"/>
<feOffset dx="-35" dy="-15"/>
<feGaussianBlur stdDeviation="6.5"/>
<feComposite in2="hardAlpha" operator="out"/>
<feColorMatrix type="matrix" values="0 0 0 0 0 0 0 0 0 0 0 0 0 0 0 0 0 0 0.25 0"/>
<feBlend mode="normal" in2="BackgroundImageFix" result="effect1_dropShadow_84_117"/>
<feBlend mode="normal" in="SourceGraphic" in2="effect1_dropShadow_84_117" result="shape"/>
</filter>
</defs>
</svg>
