<svg width="59" height="60" viewBox="0 0 59 60" fill="none" xmlns="http://www.w3.org/2000/svg">
<circle cx="3" cy="3" r="3" fill="#D9D9D9"/>
<circle cx="3" cy="12" r="3" fill="#D9D9D9"/>
<circle cx="3" cy="21" r="3" fill="#D9D9D9"/>
<circle cx="3" cy="30" r="3" fill="#D9D9D9"/>
<circle cx="3" cy="39" r="3" fill="#D9D9D9"/>
<circle cx="3" cy="48" r="3" fill="#D9D9D9"/>
<circle cx="3" cy="57" r="3" fill="#D9D9D9"/>
<circle cx="13" cy="3" r="3" fill="#D9D9D9"/>
<circle cx="13" cy="12" r="3" fill="#D9D9D9"/>
<circle cx="13" cy="21" r="3" fill="#D9D9D9"/>
<circle cx="13" cy="30" r="3" fill="#D9D9D9"/>
<circle cx="13" cy="39" r="3" fill="#D9D9D9"/>
<circle cx="13" cy="48" r="3" fill="#D9D9D9"/>
<circle cx="13" cy="57" r="3" fill="#D9D9D9"/>
<circle cx="24" cy="3" r="3" fill="#D9D9D9"/>
<circle cx="24" cy="12" r="3" fill="#D9D9D9"/>
<circle cx="24" cy="21" r="3" fill="#D9D9D9"/>
<circle cx="24" cy="30" r="3" fill="#D9D9D9"/>
<circle cx="24" cy="39" r="3" fill="#D9D9D9"/>
<circle cx="24" cy="48" r="3" fill="#D9D9D9"/>
<circle cx="24" cy="57" r="3" fill="#D9D9D9"/>
<circle cx="35" cy="3" r="3" fill="#D9D9D9"/>
<circle cx="35" cy="12" r="3" fill="#D9D9D9"/>
<circle cx="35" cy="21" r="3" fill="#D9D9D9"/>
<circle cx="35" cy="30" r="3" fill="#D9D9D9"/>
<circle cx="35" cy="39" r="3" fill="#D9D9D9"/>
<circle cx="35" cy="48" r="3" fill="#D9D9D9"/>
<circle cx="35" cy="57" r="3" fill="#D9D9D9"/>
<circle cx="45" cy="3" r="3" fill="#D9D9D9"/>
<circle cx="45" cy="12" r="3" fill="#D9D9D9"/>
<circle cx="45" cy="21" r="3" fill="#D9D9D9"/>
<circle cx="45" cy="30" r="3" fill="#D9D9D9"/>
<circle cx="45" cy="39" r="3" fill="#D9D9D9"/>
<circle cx="45" cy="48" r="3" fill="#D9D9D9"/>
<circle cx="45" cy="57" r="3" fill="#D9D9D9"/>
<circle cx="56" cy="3" r="3" fill="#D9D9D9"/>
<circle cx="56" cy="12" r="3" fill="#D9D9D9"/>
<circle cx="56" cy="21" r="3" fill="#D9D9D9"/>
<circle cx="56" cy="30" r="3" fill="#D9D9D9"/>
<circle cx="56" cy="39" r="3" fill="#D9D9D9"/>
<circle cx="56" cy="48" r="3" fill="#D9D9D9"/>
<circle cx="56" cy="57" r="3" fill="#D9D9D9"/>
</svg>
