<svg width="185" height="89" viewBox="0 0 185 89" fill="none" xmlns="http://www.w3.org/2000/svg">
<path d="M5.89587 36.3947L6.00231 36.8832L9.93257 36.0269L9.82613 35.5384L13.7564 34.6821L13.8628 35.1706L17.794 34.3141L17.6876 33.8256L21.6179 32.9693L21.7243 33.4578L25.6546 32.6016L25.5481 32.113L29.4794 31.2565L29.5858 31.7451L33.5161 30.8888L33.4096 30.4002L37.3399 29.5439L37.4463 30.0325L41.3766 29.1762L41.2701 28.6877L45.2014 27.8312L45.3078 28.3197L49.2381 27.4634L49.1316 26.9749L53.0619 26.1186L53.1683 26.6071L57.0986 25.7508L56.9921 25.2623L60.9234 24.4058L61.0298 24.8943L64.9601 24.038L64.8536 23.5495L68.7839 22.6932L68.8903 23.1818L72.8215 22.3253L72.7151 21.8367L76.6454 20.9804L76.7518 21.469L80.6821 20.6127L80.5756 20.1241L84.5059 19.2679L84.6123 19.7564L88.5435 18.8999L88.4371 18.4114L92.3674 17.5551L92.4738 18.0436L96.4041 17.1873L96.2976 16.6988L100.228 15.8425L100.334 16.331L104.266 15.4745L104.159 14.986L108.089 14.1297L108.196 14.6182L112.126 13.762L112.02 13.2734L115.951 12.4169L116.057 12.9055L119.988 12.0492L119.881 11.5606L123.811 10.7043L123.918 11.1929L127.848 10.3366L127.742 9.84806L131.673 8.99156L131.779 9.4801L135.71 8.62381L135.603 8.13527L139.533 7.27898L139.64 7.76752L143.57 6.91123L143.464 6.42269L147.395 5.5662L147.501 6.05474L151.432 5.19845L151.325 4.70991L155.255 3.85362L155.362 4.34216L159.293 3.48566L159.187 2.99713L163.117 2.14084L163.223 2.62938L167.154 1.77309L167.047 1.28455L170.977 0.42826L171.084 0.916799L172.561 0.594989L172.85 1.9213L173.338 1.81486L174.129 5.4436L173.64 5.55004L174.431 9.17974L174.92 9.0733L175.71 12.702L175.222 12.8085L176.012 16.4372L176.501 16.3308L177.292 19.9605L176.803 20.0669L177.594 23.6957L178.082 23.5892L178.873 27.2189L178.385 27.3254L179.175 30.9541L179.664 30.8477L180.455 34.4774L179.966 34.5838L180.757 38.2125L181.245 38.1061L182.036 41.7348L181.547 41.8413L182.338 45.471L182.827 45.3645L183.617 48.9933L183.129 49.0997L183.418 50.426L181.941 50.7478L182.047 51.2364L178.117 52.0927L178.01 51.6041L174.08 52.4604L174.186 52.9489L170.256 53.8052L170.15 53.3167L166.219 54.1732L166.325 54.6617L162.395 55.518L162.288 55.0295L158.358 55.8858L158.464 56.3743L154.533 57.2308L154.427 56.7423L150.497 57.5986L150.603 58.0871L146.673 58.9434L146.566 58.4548L142.636 59.3111L142.742 59.7997L138.811 60.6562L138.705 60.1676L134.775 61.0239L134.881 61.5125L130.951 62.3687L130.844 61.8802L126.914 62.7365L127.02 63.225L123.089 64.0815L122.983 63.593L119.053 64.4493L119.159 64.9378L115.229 65.7941L115.122 65.3056L111.191 66.1621L111.297 66.6506L107.367 67.5069L107.261 67.0184L103.331 67.8746L103.437 68.3632L99.5067 69.2195L99.4003 68.7309L95.469 69.5874L95.5755 70.076L91.6452 70.9323L91.5388 70.4437L87.6085 71.3L87.715 71.7885L83.7847 72.6448L83.6783 72.1563L79.747 73.0128L79.8535 73.5013L75.9232 74.3576L75.8168 73.8691L71.8865 74.7254L71.993 75.2139L68.0617 76.0704L67.9553 75.5819L64.025 76.4381L64.1315 76.9267L60.2012 77.783L60.0948 77.2944L56.1645 78.1507L56.2709 78.6393L52.3397 79.4958L52.2333 79.0072L48.303 79.8635L48.4095 80.352L44.4792 81.2083L44.3728 80.7198L40.4425 81.5761L40.5489 82.0646L36.6177 82.9211L36.5113 82.4326L32.581 83.2889L32.6875 83.7774L28.7572 84.6337L28.6508 84.1452L24.7195 85.0017L24.826 85.4902L20.8957 86.3465L20.7893 85.8579L16.859 86.7142L16.9655 87.2028L13.0352 88.0591L12.9288 87.5705L11.4517 87.8923L11.1627 86.566L10.6742 86.6725L9.88359 83.0437L10.3721 82.9373L9.58133 79.3076L9.09279 79.414L8.30219 75.7853L8.79073 75.6788L8.00014 72.0501L7.5116 72.1565L6.72079 68.5268L7.20933 68.4204L6.41874 64.7917L5.9302 64.8981L5.13939 61.2684L5.62793 61.162L4.83734 57.5332L4.3488 57.6397L3.55799 54.01L4.04653 53.9035L3.25594 50.2748L2.7674 50.3812L1.9768 46.7525L2.46534 46.646L1.67454 43.0164L1.186 43.1228L0.395402 39.494L0.883941 39.3876L0.594978 38.0613L2.07205 37.7395L1.96561 37.251L5.89587 36.3947Z" stroke="#B6B6B6" stroke-dasharray="4 4"/>
</svg>
