<svg width="99" height="59" viewBox="0 0 99 59" fill="none" xmlns="http://www.w3.org/2000/svg">
<path d="M1.96781 57.772C0.908957 48.5368 0.638274 36.2922 1.56179 33.5097C3.22008 28.5133 8.84647 26.4679 15.0802 22.2284C20.0049 18.8793 32.3963 18.7612 40.1666 19.6848C44.6318 20.2155 49.1789 22.2005 53.9637 24.8517C62.2641 29.4508 61.6782 42.0881 62.339 47.1356C62.5465 48.7201 62.4744 50.8297 62.0803 52.3065C61.6862 53.7834 60.898 54.5716 59.8352 54.8462C53.6729 56.4387 46.8382 47.7088 44.9633 43.3261C43.9537 40.966 44.1632 36.3081 44.5573 31.1372C44.9605 25.8467 50.7711 22.2324 55.95 16.532C63.4138 8.3167 68.8117 4.71734 74.3966 2.18164C79.4481 0.983437 87.8871 0.450032 94.304 1.77163C95.3708 2.04232 96.4217 2.04232 97.5045 2.83844" stroke="#C9C9C9" stroke-width="2" stroke-linecap="round" stroke-dasharray="4 4"/>
</svg>
